<svg xmlns="http://www.w3.org/2000/svg" version="1.1" xmlns:xlink="http://www.w3.org/1999/xlink" xmlns:svgjs="http://svgjs.com/svgjs" width="1440" height="560" preserveAspectRatio="none" viewBox="0 0 1440 560"><g mask="url(&quot;#SvgjsMask1004&quot;)" fill="none"><rect width="1440" height="560" x="0" y="0" fill="#0e2a47"></rect><g mask="url(&quot;#SvgjsMask1005&quot;)"><path d="M62.5 287.5L87.5 287.5L112.5 287.5M-12.5 287.5L12.5 287.5L37.5 287.5L62.5 287.5L87.5 312.5" stroke="rgba(182, 85, 0, 1)" stroke-width="4.17"></path><path d="M81.25 312.5 a6.25 6.25 0 1 0 12.5 0 a6.25 6.25 0 1 0 -12.5 0zM106.25 287.5 a6.25 6.25 0 1 0 12.5 0 a6.25 6.25 0 1 0 -12.5 0z" fill="rgba(182, 85, 0, 1)"></path><path d="M287.5 237.5L312.5 237.5L337.5 237.5L362.5 237.5L387.5 237.5L412.5 237.5L437.5 237.5M37.5 262.5L62.5 237.5L87.5 237.5M12.5 262.5L37.5 237.5M137.5 262.5L162.5 237.5M462.5 212.5L487.5 237.5L512.5 237.5L537.5 237.5L562.5 237.5M-12.5 262.5L12.5 262.5L37.5 262.5L62.5 262.5L87.5 262.5L112.5 262.5L137.5 262.5L162.5 262.5L187.5 262.5L212.5 262.5L237.5 262.5L262.5 262.5L287.5 237.5L312.5 212.5L337.5 212.5L362.5 212.5L387.5 212.5L412.5 212.5L437.5 212.5L462.5 212.5L487.5 212.5" stroke="rgba(182, 85, 0, 1)" stroke-width="4.17"></path><path d="M481.25 212.5 a6.25 6.25 0 1 0 12.5 0 a6.25 6.25 0 1 0 -12.5 0zM431.25 237.5 a6.25 6.25 0 1 0 12.5 0 a6.25 6.25 0 1 0 -12.5 0zM81.25 237.5 a6.25 6.25 0 1 0 12.5 0 a6.25 6.25 0 1 0 -12.5 0zM31.25 237.5 a6.25 6.25 0 1 0 12.5 0 a6.25 6.25 0 1 0 -12.5 0zM156.25 237.5 a6.25 6.25 0 1 0 12.5 0 a6.25 6.25 0 1 0 -12.5 0zM556.25 237.5 a6.25 6.25 0 1 0 12.5 0 a6.25 6.25 0 1 0 -12.5 0z" fill="rgba(182, 85, 0, 1)"></path><path d="M362.5 287.5L387.5 312.5L412.5 337.5L437.5 337.5M412.5 287.5L437.5 262.5M137.5 337.5L162.5 312.5L187.5 312.5M337.5 287.5L362.5 262.5L387.5 262.5L412.5 262.5M637.5 287.5L662.5 312.5M437.5 287.5L462.5 312.5M612.5 287.5L637.5 312.5L662.5 337.5M-12.5 312.5L12.5 312.5L37.5 312.5L62.5 312.5L87.5 337.5L112.5 337.5L137.5 337.5L162.5 337.5L187.5 337.5L212.5 337.5L237.5 337.5L262.5 312.5L287.5 287.5L312.5 287.5L337.5 287.5L362.5 287.5L387.5 287.5L412.5 287.5L437.5 287.5L462.5 287.5L487.5 287.5L512.5 287.5L537.5 287.5L562.5 287.5L587.5 287.5L612.5 287.5L637.5 287.5L662.5 287.5" stroke="rgba(182, 85, 0, 1)" stroke-width="4.17"></path><path d="M656.25 287.5 a6.25 6.25 0 1 0 12.5 0 a6.25 6.25 0 1 0 -12.5 0zM431.25 337.5 a6.25 6.25 0 1 0 12.5 0 a6.25 6.25 0 1 0 -12.5 0zM431.25 262.5 a6.25 6.25 0 1 0 12.5 0 a6.25 6.25 0 1 0 -12.5 0zM181.25 312.5 a6.25 6.25 0 1 0 12.5 0 a6.25 6.25 0 1 0 -12.5 0zM406.25 262.5 a6.25 6.25 0 1 0 12.5 0 a6.25 6.25 0 1 0 -12.5 0zM656.25 312.5 a6.25 6.25 0 1 0 12.5 0 a6.25 6.25 0 1 0 -12.5 0zM456.25 312.5 a6.25 6.25 0 1 0 12.5 0 a6.25 6.25 0 1 0 -12.5 0zM656.25 337.5 a6.25 6.25 0 1 0 12.5 0 a6.25 6.25 0 1 0 -12.5 0z" fill="rgba(182, 85, 0, 1)"></path><path d="M-12.5 337.5L12.5 337.5" stroke="rgba(182, 85, 0, 1)" stroke-width="4.17"></path><path d="M6.25 337.5 a6.25 6.25 0 1 0 12.5 0 a6.25 6.25 0 1 0 -12.5 0z" fill="rgba(182, 85, 0, 1)"></path><path d="M62.5 212.5L87.5 187.5M-12.5 212.5L12.5 212.5L37.5 212.5L62.5 212.5L87.5 212.5L112.5 212.5L137.5 212.5" stroke="rgba(242, 116, 5, 1)" stroke-width="4.17"></path><path d="M131.25 212.5 a6.25 6.25 0 1 0 12.5 0 a6.25 6.25 0 1 0 -12.5 0zM81.25 187.5 a6.25 6.25 0 1 0 12.5 0 a6.25 6.25 0 1 0 -12.5 0z" fill="rgba(242, 116, 5, 1)"></path><path d="M-12.5 362.5L12.5 362.5L37.5 362.5" stroke="rgba(242, 116, 5, 1)" stroke-width="4.17"></path><path d="M31.25 362.5 a6.25 6.25 0 1 0 12.5 0 a6.25 6.25 0 1 0 -12.5 0z" fill="rgba(242, 116, 5, 1)"></path><path d="M162.5 187.5L187.5 212.5L212.5 212.5L237.5 237.5M262.5 212.5L287.5 187.5L312.5 162.5M212.5 187.5L237.5 187.5L262.5 187.5L287.5 162.5L312.5 137.5L337.5 137.5L362.5 137.5M412.5 187.5L437.5 162.5L462.5 162.5M137.5 187.5L162.5 162.5M-12.5 187.5L12.5 187.5L37.5 187.5L62.5 162.5L87.5 162.5L112.5 187.5L137.5 187.5L162.5 187.5L187.5 187.5L212.5 187.5L237.5 212.5L262.5 212.5L287.5 212.5L312.5 187.5L337.5 187.5L362.5 187.5L387.5 187.5L412.5 187.5L437.5 187.5L462.5 187.5" stroke="rgba(182, 85, 0, 1)" stroke-width="4.17"></path><path d="M456.25 187.5 a6.25 6.25 0 1 0 12.5 0 a6.25 6.25 0 1 0 -12.5 0zM231.25 237.5 a6.25 6.25 0 1 0 12.5 0 a6.25 6.25 0 1 0 -12.5 0zM306.25 162.5 a6.25 6.25 0 1 0 12.5 0 a6.25 6.25 0 1 0 -12.5 0zM356.25 137.5 a6.25 6.25 0 1 0 12.5 0 a6.25 6.25 0 1 0 -12.5 0zM456.25 162.5 a6.25 6.25 0 1 0 12.5 0 a6.25 6.25 0 1 0 -12.5 0zM156.25 162.5 a6.25 6.25 0 1 0 12.5 0 a6.25 6.25 0 1 0 -12.5 0z" fill="rgba(182, 85, 0, 1)"></path><path d="M487.5 512.5L512.5 487.5L537.5 487.5L562.5 487.5L587.5 487.5M112.5 412.5L137.5 412.5L162.5 412.5L187.5 412.5L212.5 412.5M437.5 487.5L462.5 487.5L487.5 487.5L512.5 462.5L537.5 462.5L562.5 462.5L587.5 462.5L612.5 487.5L637.5 487.5M312.5 462.5L337.5 462.5L362.5 462.5M212.5 437.5L237.5 462.5L262.5 487.5L287.5 487.5L312.5 487.5M62.5 387.5L87.5 362.5L112.5 362.5L137.5 362.5M137.5 437.5L162.5 462.5L187.5 462.5M-12.5 387.5L12.5 387.5L37.5 387.5L62.5 387.5L87.5 387.5L112.5 412.5L137.5 437.5L162.5 437.5L187.5 437.5L212.5 437.5L237.5 437.5L262.5 462.5L287.5 462.5L312.5 462.5L337.5 487.5L362.5 487.5L387.5 487.5L412.5 487.5L437.5 487.5L462.5 512.5L487.5 512.5L512.5 512.5L537.5 512.5L562.5 512.5L587.5 512.5L612.5 512.5L637.5 512.5L662.5 512.5" stroke="rgba(182, 85, 0, 1)" stroke-width="4.17"></path><path d="M656.25 512.5 a6.25 6.25 0 1 0 12.5 0 a6.25 6.25 0 1 0 -12.5 0zM581.25 487.5 a6.25 6.25 0 1 0 12.5 0 a6.25 6.25 0 1 0 -12.5 0zM206.25 412.5 a6.25 6.25 0 1 0 12.5 0 a6.25 6.25 0 1 0 -12.5 0zM631.25 487.5 a6.25 6.25 0 1 0 12.5 0 a6.25 6.25 0 1 0 -12.5 0zM356.25 462.5 a6.25 6.25 0 1 0 12.5 0 a6.25 6.25 0 1 0 -12.5 0zM306.25 487.5 a6.25 6.25 0 1 0 12.5 0 a6.25 6.25 0 1 0 -12.5 0zM131.25 362.5 a6.25 6.25 0 1 0 12.5 0 a6.25 6.25 0 1 0 -12.5 0zM181.25 462.5 a6.25 6.25 0 1 0 12.5 0 a6.25 6.25 0 1 0 -12.5 0z" fill="rgba(182, 85, 0, 1)"></path></g></g><defs><mask id="SvgjsMask1004"><rect width="1440" height="560" fill="#ffffff"></rect></mask><mask id="SvgjsMask1005"><rect width="1440" height="560" fill="white"></rect><path d="M84.37 312.5 a3.13 3.13 0 1 0 6.26 0 a3.13 3.13 0 1 0 -6.26 0zM109.37 287.5 a3.13 3.13 0 1 0 6.26 0 a3.13 3.13 0 1 0 -6.26 0z" fill="black"></path><path d="M484.37 212.5 a3.13 3.13 0 1 0 6.26 0 a3.13 3.13 0 1 0 -6.26 0zM434.37 237.5 a3.13 3.13 0 1 0 6.26 0 a3.13 3.13 0 1 0 -6.26 0zM84.37 237.5 a3.13 3.13 0 1 0 6.26 0 a3.13 3.13 0 1 0 -6.26 0zM34.37 237.5 a3.13 3.13 0 1 0 6.26 0 a3.13 3.13 0 1 0 -6.26 0zM159.37 237.5 a3.13 3.13 0 1 0 6.26 0 a3.13 3.13 0 1 0 -6.26 0zM559.37 237.5 a3.13 3.13 0 1 0 6.26 0 a3.13 3.13 0 1 0 -6.26 0z" fill="black"></path><path d="M659.37 287.5 a3.13 3.13 0 1 0 6.26 0 a3.13 3.13 0 1 0 -6.26 0zM434.37 337.5 a3.13 3.13 0 1 0 6.26 0 a3.13 3.13 0 1 0 -6.26 0zM434.37 262.5 a3.13 3.13 0 1 0 6.26 0 a3.13 3.13 0 1 0 -6.26 0zM184.37 312.5 a3.13 3.13 0 1 0 6.26 0 a3.13 3.13 0 1 0 -6.26 0zM409.37 262.5 a3.13 3.13 0 1 0 6.26 0 a3.13 3.13 0 1 0 -6.26 0zM659.37 312.5 a3.13 3.13 0 1 0 6.26 0 a3.13 3.13 0 1 0 -6.26 0zM459.37 312.5 a3.13 3.13 0 1 0 6.26 0 a3.13 3.13 0 1 0 -6.26 0zM659.37 337.5 a3.13 3.13 0 1 0 6.26 0 a3.13 3.13 0 1 0 -6.26 0z" fill="black"></path><path d="M9.37 337.5 a3.13 3.13 0 1 0 6.26 0 a3.13 3.13 0 1 0 -6.26 0z" fill="black"></path><path d="M134.37 212.5 a3.13 3.13 0 1 0 6.26 0 a3.13 3.13 0 1 0 -6.26 0zM84.37 187.5 a3.13 3.13 0 1 0 6.26 0 a3.13 3.13 0 1 0 -6.26 0z" fill="black"></path><path d="M34.37 362.5 a3.13 3.13 0 1 0 6.26 0 a3.13 3.13 0 1 0 -6.26 0z" fill="black"></path><path d="M459.37 187.5 a3.13 3.13 0 1 0 6.26 0 a3.13 3.13 0 1 0 -6.26 0zM234.37 237.5 a3.13 3.13 0 1 0 6.26 0 a3.13 3.13 0 1 0 -6.26 0zM309.37 162.5 a3.13 3.13 0 1 0 6.26 0 a3.13 3.13 0 1 0 -6.26 0zM359.37 137.5 a3.13 3.13 0 1 0 6.26 0 a3.13 3.13 0 1 0 -6.26 0zM459.37 162.5 a3.13 3.13 0 1 0 6.26 0 a3.13 3.13 0 1 0 -6.26 0zM159.37 162.5 a3.13 3.13 0 1 0 6.26 0 a3.13 3.13 0 1 0 -6.26 0z" fill="black"></path><path d="M659.37 512.5 a3.13 3.13 0 1 0 6.26 0 a3.13 3.13 0 1 0 -6.26 0zM584.37 487.5 a3.13 3.13 0 1 0 6.26 0 a3.13 3.13 0 1 0 -6.26 0zM209.37 412.5 a3.13 3.13 0 1 0 6.26 0 a3.13 3.13 0 1 0 -6.26 0zM634.37 487.5 a3.13 3.13 0 1 0 6.26 0 a3.13 3.13 0 1 0 -6.26 0zM359.37 462.5 a3.13 3.13 0 1 0 6.26 0 a3.13 3.13 0 1 0 -6.26 0zM309.37 487.5 a3.13 3.13 0 1 0 6.26 0 a3.13 3.13 0 1 0 -6.26 0zM134.37 362.5 a3.13 3.13 0 1 0 6.26 0 a3.13 3.13 0 1 0 -6.26 0zM184.37 462.5 a3.13 3.13 0 1 0 6.26 0 a3.13 3.13 0 1 0 -6.26 0z" fill="black"></path></mask></defs></svg>