<?xml version="1.0" encoding="utf-8"?>
<!-- Generator: Adobe Illustrator 24.1.2, SVG Export Plug-In . SVG Version: 6.00 Build 0)  -->
<svg version="1.1" id="Capa_1" xmlns="http://www.w3.org/2000/svg" xmlns:xlink="http://www.w3.org/1999/xlink" x="0px" y="0px"
	 viewBox="0 0 500 70" style="enable-background:new 0 0 500 70;" xml:space="preserve">
<style type="text/css">
	.st0{fill:#FFFFFF;stroke:#03275D;stroke-width:5;stroke-miterlimit:10;}
	.st1{fill:#0A214B;}
	.st2{fill:#0A214B;stroke:#0A214B;stroke-miterlimit:10;}
</style>
<g>
	<path class="st0" d="M119.41,52.3"/>
	<path class="st1" d="M29.82,67.33V6.74c0-0.01,0-0.01,0-0.01l3.98-5.95c0.01-0.01,0.02-0.01,0.03,0l3.98,5.95c0,0,0,0.01,0,0.01
		v60.59"/>
	<path class="st1" d="M15.46,15.6l-5.58,5.82c-0.04,0.04-0.06,0.09-0.06,0.15v45.55c0,0.12,0.1,0.21,0.21,0.21h5.57
		c0.12,0,0.21-0.1,0.21-0.21V15.75C15.82,15.56,15.59,15.47,15.46,15.6z"/>
	<path class="st1" d="M51.2,15.61l5.56,5.8c0.04,0.04,0.06,0.1,0.06,0.16v45.54c0,0.12-0.1,0.22-0.22,0.22h-5.56
		c-0.12,0-0.22-0.1-0.22-0.22V15.76C50.82,15.56,51.06,15.47,51.2,15.61z"/>
	<g>
		<path class="st2" d="M129.32,56.2l-2.4,4.7l-4.78,4.61l-4.87,2.32h-9.58l-4.84-2.32l-4.81-4.61l-2.31-4.64l-2.4-6.87v-12.4
			l2.59-7.03l2.28-4.75l4.75-4.72l4.78-2.67h9.46l4.81,2.67l4.72,4.72l2.31,4.68l-0.93,0.51l-2.28-4.52l-4.49-4.49l-4.4-2.57h-8.96
			l-4.5,2.25l-4.54,4.57l-2.35,4.53l-2.25,6.88V48.6l2.25,6.88l2.35,4.53l4.54,4.57l4.5,2.25h9.07l4.47-2.25l4.57-4.57l2.25-4.47
			v-5.72h-12v-1h13V56.2z"/>
		<path class="st2" d="M170.32,67.83h-26v-49h1v48h25V67.83z"/>
		<path class="st2" d="M217.32,49.1L215,56.08l-2.26,4.72l-4.61,4.68l-4.7,2.36h-9.25l-4.67-2.36l-4.64-4.68l-2.23-4.72l-2.32-6.98
			V37.56l2.32-6.98l2.23-4.72l4.64-4.68l4.67-2.36h9.25l4.7,2.36l4.61,4.68l2.26,4.72l2.32,6.98V49.1z M218.32,48.6V37.06
			l-2.26-6.88l-2.29-4.53l-4.53-4.57l-4.43-2.25h-8.98l-4.46,2.25l-4.49,4.57l-2.33,4.53l-2.23,6.88V48.6l2.23,6.88l2.33,4.53
			l4.49,4.57l4.46,2.25h8.98l4.43-2.25l4.53-4.57l2.29-4.53L218.32,48.6z"/>
		<path class="st2" d="M268.32,58.3l-2.36,4.75l-2.49,2.42l-7.04,2.36h-21.12v-49h21.12l7.04,2.36l2.49,2.39l2.36,4.78v4.84
			l-2.36,4.75l-2.49,2.42L258,42.18l5.48,1.82l2.49,2.42l2.36,4.78V58.3z M267.32,31.99v-4.34l-2.2-4.41l-2.11-2.19l-6.67-2.22
			h-20.02v22h20.02l6.67-2.25l2.11-2.15L267.32,31.99z M267.32,57.12v-6.58l-2.2-4.36l-2.11-2.16l-6.67-2.19h-20.02v24h20.02
			l6.67-2.19l2.11-2.16L267.32,57.12z"/>
		<path class="st2" d="M328.32,49.1L326,56.08l-2.26,4.72l-4.61,4.68l-4.7,2.36h-9.25l-4.67-2.36l-4.64-4.68l-2.23-4.72l-2.32-6.98
			V37.56l2.32-6.98l2.23-4.72l4.64-4.68l4.67-2.36h9.25l4.7,2.36l4.61,4.68l2.26,4.72l2.32,6.98V49.1z M327.32,48.6V37.06
			l-2.26-6.88l-2.29-4.53l-4.52-4.57l-4.43-2.25h-8.98l-4.46,2.25l-4.49,4.57l-2.33,4.53l-2.23,6.88V48.6l2.23,6.88l2.33,4.53
			l4.49,4.57l4.46,2.25h8.98l4.43-2.25l4.52-4.57l2.29-4.53L327.32,48.6z"/>
		<path class="st2" d="M377.32,49.1l-2.36,6.98l-2.26,4.72l-4.78,4.68l-7.04,2.36h-16.56v-49h16.56l7.04,2.36l4.78,4.68l2.26,4.72
			l2.36,6.98V49.1z M376.32,48.6V37.06l-2.2-6.88l-2.3-4.53l-4.37-4.57l-6.67-2.25h-15.45v48h15.45l6.67-2.25l4.37-4.57l2.3-4.53
			L376.32,48.6z"/>
		<path class="st2" d="M424.98,66.09l-0.89,0.41l-6.02-15.67h-23.6l-6.02,15.67l-0.89-0.41l18.38-48.26h0.7L424.98,66.09z
			 M417.77,49.83l-11.49-30.22l-11.52,30.22H417.77z"/>
		<path class="st2" d="M438.32,67.83h-1v-49h1V67.83z"/>
		<path class="st2" d="M489.32,67.83h-1.06l-30.94-47.46v47.46h-1v-49h0.95l31.05,46.4v-46.4h1V67.83z"/>
	</g>
</g>
</svg>
