<?xml version="1.0" encoding="utf-8"?>
<!-- Generator: Adobe Illustrator 24.1.2, SVG Export Plug-In . SVG Version: 6.00 Build 0)  -->
<svg version="1.1" id="Capa_1" xmlns="http://www.w3.org/2000/svg" xmlns:xlink="http://www.w3.org/1999/xlink" x="0px" y="0px"
	 viewBox="0 0 500 170" style="enable-background:new 0 0 500 170;" xml:space="preserve">
<style type="text/css">
	.st0{fill:#FFFFFF;stroke:#03275D;stroke-width:5;stroke-miterlimit:10;}
	.st1{fill:#0A214B;}
	.st2{fill:#FFFFFF;}
	.st3{fill:#0A214B;stroke:#0A214B;stroke-miterlimit:10;}
</style>
<path class="st0" d="M173,101.52"/>
<g>
	<rect x="45.5" y="42.5" class="st1" width="68" height="108.49"/>
	<path class="st2" d="M113,43v107.49H46V43H113 M114,42H45v109.49h69V42L114,42z"/>
</g>
<path class="st2" d="M78,152.65V77.44c0-0.01,0-0.01,0-0.02l2.98-7.41c0.01-0.02,0.02-0.02,0.02,0L84,77.42c0,0.01,0,0.01,0,0.02
	v75.22"/>
<path class="st2" d="M66.72,85.16l-4.67,7.54c-0.03,0.05-0.05,0.12-0.05,0.2v58.68c0,0.15,0.07,0.27,0.16,0.27h4.67
	c0.09,0,0.16-0.12,0.16-0.27V85.35C67,85.11,66.83,84.99,66.72,85.16z"/>
<path class="st2" d="M94.29,86.31l4.66,7.52c0.03,0.05,0.05,0.13,0.05,0.21v58.67c0,0.16-0.08,0.29-0.17,0.29h-4.66
	c-0.09,0-0.17-0.13-0.17-0.29V86.52C94,86.27,94.18,86.14,94.29,86.31z"/>
<g>
	<path class="st3" d="M180.5,104.32l-1.87,3.71l-3.71,3.64l-3.79,1.83h-7.45l-3.77-1.83l-3.74-3.64l-1.79-3.66l-1.87-5.42v-9.3
		l2.26-5.45l1.77-3.69l3.69-3.66l3.71-2.34h7.35l3.74,2.34l3.66,3.66l1.79,3.64l-0.72,0.4l-1.77-3.51l-3.49-3.49l-3.41-2.04h-7.14
		l-3.44,1.73l-3.47,3.52l-1.8,3.49l-1.72,5.3v8.9l1.72,5.3l1.8,3.49l3.47,3.52l3.44,1.73h6.94l3.42-1.73l3.49-3.52l1.72-3.44v-4.3
		h-9v-1h10V104.32z"/>
	<path class="st3" d="M212.5,113.5h-20v-38h1v37h19V113.5z"/>
	<path class="st3" d="M249.5,98.97l-1.82,5.41l-1.77,3.66l-3.61,3.63l-3.69,1.83h-7.25l-3.66-1.83l-3.64-3.63l-1.74-3.66l-1.82-5.41
		v-8.94l1.82-5.41l1.74-3.66l3.64-3.63l3.66-1.83h7.25l3.69,1.83l3.61,3.63l1.77,3.66l1.82,5.41V98.97z M249.5,98.45v-8.9l-1.76-5.3
		l-1.78-3.49l-3.52-3.52l-3.44-1.73h-6.99l-3.47,1.73l-3.49,3.52l-1.81,3.49l-1.73,5.3v8.9l1.73,5.3l1.81,3.49l3.49,3.52l3.47,1.73
		h6.99l3.44-1.73l3.52-3.52l1.78-3.49L249.5,98.45z"/>
	<path class="st3" d="M288.5,106.11l-1.86,3.68l-1.96,1.88l-5.55,1.83H262.5v-38h16.64l5.55,1.83l1.96,1.85l1.86,3.71v3.76
		l-1.86,3.68l-1.96,1.88l-4.32,1.41l4.32,1.41l1.96,1.88l1.86,3.71V106.11z M287.5,85.66v-3.36l-1.7-3.4l-1.63-1.69L279,75.5h-15.5
		v17H279l5.17-1.74l1.63-1.66L287.5,85.66z M287.5,105.6v-5.21l-1.7-3.45l-1.63-1.71L279,93.5h-15.5v19H279l5.17-1.74l1.63-1.71
		L287.5,105.6z"/>
	<path class="st3" d="M335.5,98.97l-1.82,5.41l-1.77,3.66l-3.61,3.63l-3.69,1.83h-7.25l-3.66-1.83l-3.64-3.63l-1.74-3.66l-1.82-5.41
		v-8.94l1.82-5.41l1.74-3.66l3.64-3.63l3.66-1.83h7.25l3.69,1.83l3.61,3.63l1.77,3.66l1.82,5.41V98.97z M334.5,98.45v-8.9l-1.76-5.3
		l-1.78-3.49l-3.52-3.52l-3.44-1.73h-6.99l-3.47,1.73l-3.49,3.52l-1.81,3.49l-1.73,5.3v8.9l1.73,5.3l1.81,3.49l3.49,3.52l3.47,1.73
		h6.99l3.44-1.73l3.52-3.52l1.78-3.49L334.5,98.45z"/>
	<path class="st3" d="M373.5,98.97l-1.86,5.41l-1.78,3.66l-3.76,3.63l-5.55,1.83H347.5v-38h13.05l5.55,1.83l3.76,3.63l1.78,3.66
		l1.86,5.41V98.97z M372.5,98.45v-8.9l-1.7-5.3l-1.78-3.49l-3.39-3.52l-5.17-1.73H348.5v37h11.96l5.17-1.73l3.39-3.52l1.78-3.49
		L372.5,98.45z"/>
	<path class="st3" d="M410.4,112.52l-0.7,0.33l-4.74-12.35h-18.6l-4.74,12.35l-0.7-0.33l14.48-38.02h0.55L410.4,112.52z
		 M404.58,99.5l-8.92-23.46l-8.94,23.46H404.58z"/>
	<path class="st3" d="M420.5,113.5h-1v-38h1V113.5z"/>
	<path class="st3" d="M460.5,113.5h-1.21L435.5,76.74v36.76h-1v-38h0.73l24.27,36.06V75.5h1V113.5z"/>
</g>
</svg>
